# xmcd
#
# Track frame offsets: 
#        150
#        10250
#        24274
#        38523
#        50554
#        64240
#        76924
#        89712
#        103499
#        117165
#        131453
#        157076
#        169451
#        179254
#        191866
#        203472
#        215585
#        228396
#        240923
#        252870
#
# Disc length: 3508 seconds
#
# Revision: 2
# Processed by: cddbd v1.5.2PL0 Copyright (c) Steve Scherf et al.
# Submitted via: ExactAudioCopyFreeDBPlugin 1.0
#
DISCID=120db214
DTITLE=John Lee Hooker, Wynonie Harris - ABC Of The Blues - Vol. 13 Ho
DTITLE=oker, Harris
DYEAR=2010
DGENRE=Blues
TTITLE0=John Lee Hooker - Dimples
TTITLE1=John Lee Hooker - I'm In The Mood
TTITLE2=John Lee Hooker - Boogie Chillen'
TTITLE3=John Lee Hooker - Let Your Daddy Ride
TTITLE4=John Lee Hooker - John L's House Rent Boogie
TTITLE5=John Lee Hooker - Weeping Willow Boogie
TTITLE6=John Lee Hooker - Huckle Up Baby
TTITLE7=John Lee Hooker - Hobo Blues
TTITLE8=John Lee Hooker - Crawlin' King Snake
TTITLE9=John Lee Hooker - Sally Mae
TTITLE10=Wynonie Harris - Around The Clock Pt. 1 and 2
TTITLE11=Wynonie Harris - Yonder Goes My Baby
TTITLE12=Wynonie Harris - Don't Take My Whiskey Away From Me
TTITLE13=Wynonie Harris - Cock-A-Doodle-Doo
TTITLE14=Wynonie Harris - Time To Change Your Town
TTITLE15=Wynonie Harris - You Got To Get Yourself A Job, Girl
TTITLE16=Wynonie Harris - Oh Babe!
TTITLE17=Wynonie Harris - Luscious Woman
TTITLE18=Wynonie Harris - Stormy Night Blues
TTITLE19=Wynonie Harris - Git To Gittin' Baby
EXTD=
EXTT0=
EXTT1=
EXTT2=
EXTT3=
EXTT4=
EXTT5=
EXTT6=
EXTT7=
EXTT8=
EXTT9=
EXTT10=
EXTT11=
EXTT12=
EXTT13=
EXTT14=
EXTT15=
EXTT16=
EXTT17=
EXTT18=
EXTT19=
PLAYORDER=
